<svg width="74" height="22" viewBox="0 0 74 22" fill="none" xmlns="http://www.w3.org/2000/svg">
<g clip-path="url(#clip0_3_88)">
<path d="M61.2001 10.8L18.7001 10.7C14.9001 10.7 11.6001 11.2001 9.50012 12.0001C3.10012 14.5001 3.40012 19.7 3.00012 19.7C0.300121 19.6 0.500115 14.0001 0.900115 11.5001C2.10011 2.80006 9.10013 0.300049 14.2001 0.300049L73.5001 0.500061C73.2001 9.50006 67.3001 10.8 61.2001 10.8ZM30.6001 2.40005H34.3001L32.8001 8.00006H36.6001L37.7001 4.10005C38.3001 2.10005 39.4001 2.30005 40.3001 2.30005H44.0001L42.4001 8.00006L51.7001 8.10007C58.8001 8.20007 60.2001 3.70006 60.7001 1.50006L20.8001 1.40005C8.60011 1.00005 2.40011 2.90006 1.80011 14.0001C5.90011 8.50006 11.9001 7.70004 18.0001 7.70004L26.9001 7.80005L28.0001 4.00006C28.5001 2.20006 29.7001 2.40005 30.6001 2.40005Z" fill="#003352"/>
<path d="M46.4996 19.8L19.7996 19.7C20.4996 16.7 18.3996 13.8 15.4996 13.7C12.5996 13.7 10.3996 16.7 11.1996 19.7H4.09961C6.29961 12.3 12.7996 12 18.5996 12L62.7996 12.2C65.6996 12.2 67.0996 11.8 70.0996 10.7C70.2996 16.7 62.8996 20.5 55.2996 19.6V18.6C55.2996 16 53.4996 14 50.8996 14C47.6996 13.9 46.5996 16.4 46.4996 19.8Z" fill="#00A0E3"/>
<path d="M15.4992 15C17.2992 15 18.7992 16.6 18.7992 18.5C18.7992 20.4 17.2992 21.9 15.4992 21.9C13.6992 21.9 12.1992 20.3 12.1992 18.4C12.1992 16.5 13.6992 15 15.4992 15Z" fill="#00A0E3"/>
<path d="M15.5008 16.1001C16.7008 16.1001 17.7008 17.1001 17.7008 18.4001C17.7008 19.7001 16.7008 20.7001 15.5008 20.7001C14.3008 20.7001 13.3008 19.7001 13.3008 18.4001C13.3008 17.1001 14.3008 16.1001 15.5008 16.1001Z" fill="#FEFEFE"/>
<path d="M50.9992 15.1002C52.7992 15.1002 54.2992 16.7002 54.2992 18.6002C54.2992 20.5002 52.7992 22.0001 50.9992 22.0001C49.1992 22.0001 47.6992 20.4001 47.6992 18.5001C47.6992 16.6001 49.1992 15.0002 50.9992 15.1002Z" fill="#00A0E3"/>
<path d="M51.0008 16.2C52.2008 16.2 53.2008 17.2 53.2008 18.5C53.2008 19.8 52.2008 20.8 51.0008 20.8C49.8008 20.8 48.8008 19.8 48.8008 18.5C48.8008 17.2 49.8008 16.2 51.0008 16.2Z" fill="#FEFEFE"/>
</g>
<defs>
<clipPath id="clip0_3_88">
<rect width="74" height="22" fill="white"/>
</clipPath>
</defs>
</svg>
