<svg width="237" height="26" viewBox="0 0 237 26" fill="none" xmlns="http://www.w3.org/2000/svg">
<path d="M62.2001 14.7998L19.7001 14.6998C15.9001 14.6998 12.6001 15.1998 10.5001 15.9998C4.10012 18.4998 4.40012 23.6998 4.00012 23.6998C1.30012 23.5998 1.50011 17.9998 1.90011 15.4998C3.10011 6.79982 10.1001 4.2998 15.2001 4.2998L74.5001 4.49982C74.2001 13.4998 68.3001 14.7998 62.2001 14.7998ZM31.6001 6.39981H35.3001L33.8001 11.9998H37.6001L38.7001 8.09981C39.3001 6.09981 40.4001 6.2998 41.3001 6.2998H45.0001L43.4001 11.9998L52.7001 12.0998C59.8001 12.1998 61.2001 7.69982 61.7001 5.49982L21.8001 5.39981C9.60011 4.99981 3.40011 6.89982 2.80011 17.9998C6.90011 12.4998 12.9001 11.6998 19.0001 11.6998L27.9001 11.7998L29.0001 7.99982C29.5001 6.19982 30.7001 6.39981 31.6001 6.39981Z" fill="#003352"/>
<path d="M47.4996 23.8L20.7996 23.7C21.4996 20.7 19.3996 17.8 16.4996 17.7C13.5996 17.7 11.3996 20.7 12.1996 23.7H5.09961C7.29961 16.3 13.7996 16 19.5996 16L63.7996 16.2C66.6996 16.2 68.0996 15.8 71.0996 14.7C71.2996 20.7 63.8996 24.5 56.2996 23.6V22.6C56.2996 20 54.4996 18 51.8996 18C48.6996 17.9 47.5996 20.4 47.4996 23.8Z" fill="#00A0E3"/>
<path d="M16.4992 19C18.2992 19 19.7992 20.6 19.7992 22.5C19.7992 24.4 18.2992 25.9 16.4992 25.9C14.6992 25.9 13.1992 24.3 13.1992 22.4C13.1992 20.5 14.6992 19 16.4992 19Z" fill="#00A0E3"/>
<path d="M16.5008 20.0999C17.7008 20.0999 18.7008 21.0998 18.7008 22.3998C18.7008 23.6998 17.7008 24.6998 16.5008 24.6998C15.3008 24.6998 14.3008 23.6998 14.3008 22.3998C14.3008 21.0998 15.3008 20.0999 16.5008 20.0999Z" fill="#FEFEFE"/>
<path d="M51.9992 19.0999C53.7992 19.0999 55.2992 20.6999 55.2992 22.5999C55.2992 24.4999 53.7992 25.9999 51.9992 25.9999C50.1992 25.9999 48.6992 24.3999 48.6992 22.4999C48.6992 20.5999 50.1992 18.9999 51.9992 19.0999Z" fill="#00A0E3"/>
<path d="M52.0008 20.2C53.2008 20.2 54.2008 21.2 54.2008 22.5C54.2008 23.8 53.2008 24.8 52.0008 24.8C50.8008 24.8 49.8008 23.8 49.8008 22.5C49.8008 21.2 50.8008 20.2 52.0008 20.2Z" fill="#FEFEFE"/>
<path d="M38.4996 22.6999H34.7996L36.5996 15.8999H42.4996L41.0996 20.7999C40.4996 22.8999 39.3996 22.6999 38.4996 22.6999ZM28.7996 22.6999H25.0996L26.8996 15.8999H32.7996L31.3996 20.7999C30.7996 22.8999 29.6996 22.6999 28.7996 22.6999ZM94.6996 7.5999C94.6996 6.3999 95.1996 5.29991 96.0996 4.49991C96.9996 3.59991 98.0996 3.19991 99.3996 3.19991C100.7 3.19991 101.8 3.59991 102.7 4.49991C103.6 5.39991 104.1 6.3999 104.1 7.5999C104.1 8.7999 103.6 9.89989 102.7 10.6999C101.8 11.5999 100.7 11.9999 99.3996 11.9999C98.0996 11.9999 96.9996 11.5999 96.0996 10.6999C95.658 10.3135 95.3045 9.83675 95.063 9.30194C94.8214 8.76714 94.6975 8.18671 94.6996 7.5999ZM97.4996 7.5999C97.4996 8.0999 97.6996 8.59991 98.0996 8.99991C98.4996 9.39991 98.8996 9.59991 99.4996 9.59991C99.9996 9.59991 100.5 9.39991 100.9 8.99991C101.3 8.59991 101.5 8.1999 101.5 7.5999C101.5 7.0999 101.3 6.59991 100.9 6.19991C100.5 5.79991 100.1 5.5999 99.4996 5.5999C98.9996 5.5999 98.4996 5.79991 98.0996 6.19991C97.6996 6.59991 97.4996 7.0999 97.4996 7.5999ZM107.7 5.2999V6.5999H108C108.2 6.5999 108.4 6.4999 108.5 6.3999C108.6 6.2999 108.7 6.0999 108.7 5.8999C108.7 5.6999 108.6 5.4999 108.5 5.3999C108.4 5.2999 108.2 5.19991 108 5.19991C107.9 5.29991 107.7 5.2999 107.7 5.2999ZM107.7 8.3999V9.8999H108C108.2 9.8999 108.4 9.79989 108.6 9.69989C108.7 9.59989 108.8 9.39989 108.8 9.19989C108.8 8.99989 108.7 8.79989 108.6 8.69989C108.5 8.59989 108.3 8.49991 108 8.49991C108 8.39991 107.7 8.3999 107.7 8.3999ZM105 3.3999H108.4C109.2 3.3999 109.9 3.59991 110.4 3.99991C110.9 4.39991 111.2 4.8999 111.2 5.5999C111.2 5.9999 111.1 6.29991 110.9 6.69991C110.7 6.99991 110.5 7.2999 110.1 7.3999C110.5 7.5999 110.8 7.79991 111.1 8.19991C111.3 8.59991 111.5 8.99991 111.5 9.49991C111.5 10.1999 111.2 10.7999 110.7 11.1999C110.2 11.5999 109.5 11.8999 108.7 11.8999H104.9V3.3999H105ZM112.1 7.5999C112.1 6.3999 112.6 5.29991 113.5 4.49991C114.4 3.59991 115.5 3.19991 116.8 3.19991C118.1 3.19991 119.2 3.59991 120.1 4.49991C121 5.39991 121.5 6.3999 121.5 7.5999C121.5 8.7999 121 9.89989 120.1 10.6999C119.2 11.5999 118.1 11.9999 116.8 11.9999C115.5 11.9999 114.4 11.5999 113.5 10.6999C112.5 9.89989 112.1 8.7999 112.1 7.5999ZM114.8 7.5999C114.8 8.0999 115 8.59991 115.4 8.99991C115.8 9.39991 116.2 9.59991 116.8 9.59991C117.3 9.59991 117.8 9.39991 118.2 8.99991C118.6 8.59991 118.8 8.1999 118.8 7.5999C118.8 7.0999 118.6 6.59991 118.2 6.19991C117.8 5.79991 117.4 5.5999 116.8 5.5999C116.3 5.5999 115.8 5.79991 115.4 6.19991C115 6.59991 114.8 7.0999 114.8 7.5999ZM128.2 9.19989L127.8 11.8999C127.6 11.9999 127.3 11.9999 127 11.9999H126.2C125 11.9999 123.9 11.5999 123.1 10.7999C122.3 9.9999 121.9 8.89991 121.9 7.69991C121.9 6.39991 122.3 5.29991 123.2 4.49991C124 3.59991 125.1 3.19991 126.4 3.19991H127C127.2 3.19991 127.4 3.2999 127.6 3.2999L128 5.99991C127.8 5.89991 127.5 5.7999 127.3 5.7999C127.1 5.6999 126.8 5.69991 126.6 5.69991C126 5.69991 125.5 5.89991 125.1 6.19991C124.7 6.59991 124.5 6.9999 124.5 7.5999C124.5 8.1999 124.7 8.59991 125.1 8.99991C125.5 9.39991 126 9.49991 126.6 9.49991C126.9 9.49991 127.1 9.4999 127.4 9.3999C127.8 9.3999 128 9.29989 128.2 9.19989ZM131.5 3.19991V7.5999L133.9 3.3999H136.4V11.8999L133.8 12.0999V7.49991L131.3 11.8999H128.9V3.3999C129 3.3999 131.5 3.19991 131.5 3.19991ZM140.4 8.3999V9.8999H140.7C141 9.8999 141.1 9.79989 141.3 9.69989C141.4 9.59989 141.5 9.39989 141.5 9.19989C141.5 8.89989 141.4 8.79991 141.3 8.59991C141.2 8.49991 141 8.3999 140.8 8.3999H140.4ZM137.7 11.8999V3.3999H143L143.5 5.69991H140.3V6.69991H141.3C142.3 6.69991 143 6.8999 143.5 7.3999C144 7.8999 144.2 8.4999 144.2 9.2999C144.2 10.0999 143.9 10.6999 143.4 11.1999C142.9 11.6999 142.2 11.8999 141.3 11.8999H137.7ZM147.6 3.19991V7.5999L150 3.3999H152.5V11.8999L149.9 12.0999V7.49991L147.4 11.8999H145V3.3999L147.6 3.19991ZM156.4 5.49991V7.3999H156.6C156.8 7.3999 157 7.2999 157.2 7.0999C157.3 6.8999 157.4 6.6999 157.4 6.3999C157.4 6.0999 157.3 5.8999 157.2 5.7999C157 5.5999 156.9 5.5999 156.7 5.5999C156.6 5.4999 156.4 5.49991 156.4 5.49991ZM153.8 3.3999H156.4C157.6 3.3999 158.5 3.5999 159.1 4.0999C159.7 4.5999 160.1 5.3999 160.1 6.3999C160.1 7.2999 159.8 7.99991 159.2 8.59991C158.6 9.09991 157.9 9.3999 156.9 9.3999H156.4V11.8999L153.7 12.0999C153.8 12.0999 153.8 3.3999 153.8 3.3999ZM166.8 9.19989L166.4 11.8999C166.2 11.9999 165.9 11.9999 165.6 11.9999H164.8C163.5 11.9999 162.5 11.5999 161.7 10.7999C160.9 9.9999 160.5 8.89991 160.5 7.69991C160.5 6.39991 160.9 5.29991 161.8 4.49991C162.7 3.69991 163.7 3.19991 165 3.19991H165.6C165.8 3.19991 166 3.2999 166.2 3.2999L166.6 5.99991C166.4 5.89991 166.1 5.7999 165.9 5.7999C165.7 5.6999 165.4 5.69991 165.2 5.69991C164.6 5.69991 164.1 5.89991 163.7 6.19991C163.3 6.59991 163.1 6.9999 163.1 7.5999C163.1 8.1999 163.3 8.59991 163.7 8.99991C164.1 9.39991 164.6 9.49991 165.2 9.49991C165.5 9.49991 165.7 9.4999 166 9.3999C166.3 9.3999 166.6 9.29989 166.8 9.19989ZM170.2 11.8999L167.5 12.0999V3.3999L170.2 3.19991V6.99991L171.5 3.19991L174.3 3.3999L172.7 7.2999L174.6 11.8999L171.7 12.0999L170.2 7.69991V11.8999ZM177.7 3.19991V7.5999L180.1 3.3999H182.6V11.8999L180 12.0999V7.49991L177.5 11.8999H175.1V3.3999C175.2 3.3999 177.7 3.19991 177.7 3.19991ZM185 1.19991L186.3 0.899902C186.4 1.1999 186.6 1.29991 186.8 1.49991C187 1.59991 187.3 1.69991 187.6 1.69991C188 1.69991 188.2 1.59991 188.4 1.49991C188.6 1.39991 188.8 1.1999 188.9 0.899902L190.2 1.19991C190 1.79991 189.7 2.19991 189.2 2.49991C188.7 2.79991 188.2 2.8999 187.6 2.8999C187 2.8999 186.4 2.79991 186 2.49991C185.6 2.29991 185.2 1.79991 185 1.19991ZM186.5 3.19991V7.5999L188.9 3.3999H191.4V11.8999L188.8 12.0999V7.49991L186.3 11.8999H183.9V3.3999L186.5 3.19991ZM91.2996 21.2999L90.6996 18.5999L90.0996 21.2999H91.2996ZM86.3996 24.6999L89.0996 16.1999H92.2996L95.0996 24.6999L92.2996 24.8999L91.8996 23.3999H89.5996L89.1996 24.8999C89.0996 24.8999 86.3996 24.6999 86.3996 24.6999ZM97.9996 18.0999V19.3999H98.2996C98.4996 19.3999 98.6996 19.2999 98.7996 19.1999C98.8996 19.0999 98.9996 18.8999 98.9996 18.6999C98.9996 18.4999 98.8996 18.2999 98.7996 18.1999C98.6996 18.0999 98.4996 17.9999 98.2996 17.9999C98.2996 18.0999 97.9996 18.0999 97.9996 18.0999ZM97.9996 21.1999V22.6999H98.2996C98.4996 22.6999 98.6996 22.5999 98.7996 22.4999C98.8996 22.3999 98.9996 22.1999 98.9996 21.9999C98.9996 21.7999 98.8996 21.5999 98.7996 21.4999C98.6996 21.3999 98.4996 21.2999 98.1996 21.2999C98.2996 21.1999 97.9996 21.1999 97.9996 21.1999ZM95.3996 16.1999H98.7996C99.5996 16.1999 100.3 16.3999 100.8 16.7999C101.3 17.1999 101.6 17.6999 101.6 18.3999C101.6 18.7999 101.5 19.0999 101.3 19.4999C101.1 19.7999 100.9 20.0999 100.5 20.1999C100.9 20.3999 101.2 20.5999 101.5 20.9999C101.7 21.3999 101.9 21.7999 101.9 22.2999C101.9 22.9999 101.6 23.5999 101.1 23.9999C100.6 24.3999 99.8996 24.6999 99.0996 24.6999H95.2996C95.3996 24.6999 95.3996 16.1999 95.3996 16.1999ZM106.6 18.6999V24.6999L103.9 24.8999V18.6999H102.1L102.7 16.1999H108.2V18.6999H106.6ZM108.5 20.4999C108.5 19.2999 109 18.1999 109.9 17.3999C110.8 16.4999 111.9 16.0999 113.2 16.0999C114.5 16.0999 115.6 16.4999 116.5 17.3999C117.4 18.2999 117.9 19.2999 117.9 20.4999C117.9 21.6999 117.4 22.7999 116.5 23.5999C115.6 24.4999 114.5 24.8999 113.2 24.8999C111.9 24.8999 110.8 24.4999 109.9 23.5999C108.9 22.6999 108.5 21.6999 108.5 20.4999ZM111.3 20.4999C111.3 20.9999 111.5 21.4999 111.9 21.8999C112.3 22.2999 112.7 22.4999 113.3 22.4999C113.8 22.4999 114.3 22.2999 114.7 21.8999C115.1 21.4999 115.3 21.0999 115.3 20.4999C115.3 19.9999 115.1 19.4999 114.7 19.0999C114.3 18.6999 113.9 18.4999 113.3 18.4999C112.8 18.4999 112.3 18.6999 111.9 19.0999C111.5 19.4999 111.3 19.8999 111.3 20.4999ZM121.5 18.0999V19.3999H121.8C122 19.3999 122.2 19.2999 122.3 19.1999C122.4 19.0999 122.5 18.8999 122.5 18.6999C122.5 18.4999 122.4 18.2999 122.3 18.1999C122.2 18.0999 122 17.9999 121.8 17.9999C121.7 18.0999 121.5 18.0999 121.5 18.0999ZM121.5 21.1999V22.6999H121.8C122 22.6999 122.2 22.5999 122.3 22.4999C122.4 22.3999 122.5 22.1999 122.5 21.9999C122.5 21.7999 122.4 21.5999 122.3 21.4999C122.2 21.3999 122 21.2999 121.7 21.2999C121.8 21.1999 121.5 21.1999 121.5 21.1999ZM118.8 16.1999H122.2C123 16.1999 123.7 16.3999 124.2 16.7999C124.7 17.1999 125 17.6999 125 18.3999C125 18.7999 124.9 19.0999 124.7 19.4999C124.5 19.7999 124.3 20.0999 123.9 20.1999C124.3 20.3999 124.6 20.5999 124.9 20.9999C125.1 21.3999 125.3 21.7999 125.3 22.2999C125.3 22.9999 125 23.5999 124.5 23.9999C124 24.3999 123.3 24.6999 122.5 24.6999H118.7V16.1999H118.8ZM125.8 20.4999C125.8 19.2999 126.3 18.1999 127.2 17.3999C128.1 16.4999 129.2 16.0999 130.5 16.0999C131.8 16.0999 132.9 16.4999 133.8 17.3999C134.7 18.2999 135.2 19.2999 135.2 20.4999C135.2 21.6999 134.7 22.7999 133.8 23.5999C132.9 24.4999 131.8 24.8999 130.5 24.8999C129.2 24.8999 128.1 24.4999 127.2 23.5999C126.3 22.6999 125.8 21.6999 125.8 20.4999ZM128.6 20.4999C128.6 20.9999 128.8 21.4999 129.2 21.8999C129.6 22.2999 130 22.4999 130.6 22.4999C131.1 22.4999 131.6 22.2999 132 21.8999C132.4 21.4999 132.6 21.0999 132.6 20.4999C132.6 19.9999 132.4 19.4999 132 19.0999C131.6 18.6999 131.2 18.4999 130.6 18.4999C130.1 18.4999 129.6 18.6999 129.2 19.0999C128.8 19.4999 128.6 19.8999 128.6 20.4999ZM138.8 24.6999L136.1 24.8999V16.1999L138.8 15.9999V19.7999L140.1 15.9999L142.9 16.1999L141.3 20.0999L143.2 24.6999L140.3 24.8999L138.8 20.4999V24.6999ZM143.7 18.5999L144 16.3999L145.2 16.0999C145.6 15.9999 146 15.9999 146.3 15.9999C147.2 15.9999 148 16.1999 148.5 16.6999C149 17.1999 149.3 17.6999 149.3 18.3999C149.3 18.7999 149.2 19.1999 149 19.4999C148.8 19.7999 148.5 20.0999 148.2 20.1999C148.6 20.2999 148.9 20.5999 149.2 20.8999C149.4 21.1999 149.6 21.6999 149.6 22.0999C149.6 22.8999 149.3 23.4999 148.7 23.9999C148.1 24.4999 147.3 24.6999 146.3 24.6999C145.9 24.6999 145.5 24.6999 145.1 24.5999C144.7 24.5999 144.2 24.4999 143.6 24.2999L143.7 21.8999L144.9 22.1999C145.3 22.2999 145.7 22.2999 146.1 22.2999C146.4 22.2999 146.6 22.1999 146.8 22.0999C147 21.9999 147 21.7999 147 21.5999C147 21.3999 146.9 21.2999 146.8 21.1999C146.7 21.0999 146.4 20.9999 146.1 20.9999H145V19.1999H146C146.3 19.1999 146.5 19.0999 146.6 18.9999C146.7 18.8999 146.8 18.7999 146.8 18.5999C146.8 18.3999 146.7 18.2999 146.6 18.1999C146.4 18.0999 146.2 17.9999 145.9 17.9999C145.6 17.9999 145.2 17.9999 144.9 18.0999C144.3 18.4999 144 18.5999 143.7 18.5999ZM154.5 21.2999L153.9 18.5999L153.3 21.2999H154.5ZM160.4 24.8999L158 24.6999L155.4 24.8999L155 23.3999H152.7L152.3 24.8999L149.6 24.6999L152.3 16.1999H155.5L158.1 23.9999L160 16.1999H163.2L165.3 24.6999L162.7 24.8999L161.6 19.1999C161.5 19.1999 160.4 24.8999 160.4 24.8999ZM89.5996 11.8999L86.8996 12.0999V3.3999L89.5996 3.19991V6.2999H91.0996V3.3999L93.7996 3.19991V11.8999L91.0996 12.0999V8.69989H89.5996V11.8999ZM167.9 19.4999H175.5V21.2999H167.4L167.9 19.4999ZM186.9 24.8999L184.2 24.5999L186.3 16.1999H189.5L191.6 24.6999L189 24.8999L187.9 19.0999L186.9 24.8999Z" fill="#003352"/>
<path d="M196.4 21.3L195.8 18.5L195.2 21.3H196.4ZM191.5 24.8L194.2 16H197.4L200.2 24.8L197.4 25L197 23.5H194.7L194.3 25C194.2 25 191.5 24.8 191.5 24.8ZM203.1 18V19.4H203.4C203.6 19.4 203.8 19.3 203.9 19.2C204 19.1 204.1 18.9 204.1 18.7C204.1 18.5 204 18.3 203.9 18.2C203.8 18.1 203.6 18 203.4 18H203.1ZM203.1 21.2V22.8H203.4C203.6 22.8 203.8 22.7 203.9 22.6C204 22.5 204.1 22.3 204.1 22C204.1 21.8 204 21.6 203.9 21.4C203.8 21.3 203.6 21.2 203.3 21.2H203.1ZM200.5 16H203.9C204.7 16 205.4 16.2 205.9 16.6C206.4 17 206.7 17.6 206.7 18.3C206.7 18.7 206.6 19.1 206.4 19.4C206.2 19.7 206 20 205.6 20.2C206 20.4 206.3 20.7 206.6 21C206.8 21.4 207 21.8 207 22.3C207 23 206.7 23.6 206.2 24.1C205.7 24.6 205 24.8 204.2 24.8H200.4C200.5 24.8 200.5 16 200.5 16ZM210.4 24.7L207.8 24.9V16.2L210.4 16V19.1H211.9V16.2L214.6 16V24.7L211.9 24.9V21.6H210.4V24.7ZM228 14L229.3 13.7C229.4 14 229.6 14.1 229.8 14.3C230 14.4 230.3 14.5 230.6 14.5C231 14.5 231.2 14.4 231.4 14.3C231.6 14.2 231.8 14 231.9 13.7L233.2 14C233 14.6 232.7 15 232.2 15.3C231.7 15.6 231.2 15.7 230.6 15.7C230 15.7 229.4 15.6 229 15.3C228.5 15 228.2 14.6 228 14ZM229.4 15.9V20.3L231.8 16.1H234.3V24.6L231.7 24.8V20.2L229.2 24.6H226.8V16.1C226.9 16.1 229.4 15.9 229.4 15.9ZM178.6 24.9V16.2L184.1 16.1V18.7H181.3V24.7L178.6 24.9ZM219.2 24.9C221.1 24.9 222 24.1 222 22.7V21.5C222 20.1 221.1 19.3 219.2 19.3H218.3V15.9L216 16.1V24.9H219.2ZM218.3 23.6V20.6H219.2C219.8 20.6 220.1 20.8 220.1 21.4V22.7C220.1 23.3 219.8 23.5 219.2 23.5H218.3V23.6ZM225.9 24.5V15.9L223.2 16.3V24.9L225.9 24.5Z" fill="#003352"/>
</svg>
